<svg width="1280" height="720" viewBox="0 0 1280 720" xmlns="http://www.w3.org/2000/svg">
<rect width="1280" height="720" rx="36" fill="#f8fafc"/>
<text x="640" y="70" text-anchor="middle" font-family="Inter,Arial" font-size="42" font-weight="800" fill="#111827">Kohli Store Architecture</text>
<text x="640" y="112" text-anchor="middle" font-family="Inter,Arial" font-size="20" fill="#6b7280">Flutter • Provider • REST API • NestJS • Prisma • PostgreSQL</text>
<g font-family="Inter,Arial" font-size="22" font-weight="700" text-anchor="middle">
<rect x="90" y="220" width="180" height="90" rx="22" fill="#dcfce7" stroke="#16a34a" stroke-width="3"/><text x="180" y="275" fill="#166534">Flutter App</text>
<rect x="330" y="220" width="180" height="90" rx="22" fill="#ffffff" stroke="#d1d5db" stroke-width="3"/><text x="420" y="275" fill="#111827">Provider</text>
<rect x="570" y="220" width="180" height="90" rx="22" fill="#ffffff" stroke="#d1d5db" stroke-width="3"/><text x="660" y="275" fill="#111827">REST API</text>
<rect x="810" y="220" width="180" height="90" rx="22" fill="#fef2f2" stroke="#e0234e" stroke-width="3"/><text x="900" y="275" fill="#991b1b">NestJS</text>
<rect x="450" y="430" width="180" height="90" rx="22" fill="#f8fafc" stroke="#111827" stroke-width="3"/><text x="540" y="485" fill="#111827">Prisma</text>
<rect x="690" y="430" width="210" height="90" rx="22" fill="#eff6ff" stroke="#336791" stroke-width="3"/><text x="795" y="485" fill="#1e3a8a">PostgreSQL</text>
</g>
<g stroke="#16a34a" stroke-width="5" stroke-linecap="round">
<path d="M270 265 H330"/><path d="M510 265 H570"/><path d="M750 265 H810"/><path d="M900 310 V380 H540 V430"/><path d="M630 475 H690"/>
</g>
<text x="640" y="640" text-anchor="middle" font-family="Inter,Arial" font-size="18" fill="#6b7280">A layered production-style architecture for scalable grocery commerce.</text>
</svg>
